<svg xmlns="http://www.w3.org/2000/svg" xmlns:xlink="http://www.w3.org/1999/xlink" width="52" height="52" viewBox="0 0 52 52">
  <defs>
    <filter id="Ellipse_15" x="0" y="0" width="52" height="52" filterUnits="userSpaceOnUse">
      <feOffset dy="3" input="SourceAlpha"/>
      <feGaussianBlur stdDeviation="1.5" result="blur"/>
      <feFlood flood-opacity="0.161"/>
      <feComposite operator="in" in2="blur"/>
      <feComposite in="SourceGraphic"/>
    </filter>
    <clipPath id="clip-path">
      <rect id="Rectangle_237" data-name="Rectangle 237" width="14.33" height="13.682" fill="none"/>
    </clipPath>
  </defs>
  <g id="Group_9000" data-name="Group 9000" transform="translate(-1480.5 -581.5)">
    <g transform="matrix(1, 0, 0, 1, 1480.5, 581.5)" filter="url(#Ellipse_15)">
      <circle id="Ellipse_15-2" data-name="Ellipse 15" cx="21.5" cy="21.5" r="21.5" transform="translate(4.5 1.5)" fill="#fff"/>
    </g>
    <g id="Group_8785" data-name="Group 8785" transform="translate(1498.999 598)">
      <path id="Path_23055" data-name="Path 23055" d="M0,13.682H2.623V3.769H0ZM0,2.424H2.623V0H0Z" fill="#231f20"/>
      <g id="Group_8784" data-name="Group 8784">
        <g id="Group_8783" data-name="Group 8783" clip-path="url(#clip-path)">
          <path id="Path_23056" data-name="Path 23056" d="M147.459,102.806h-2.622V97.747a7.763,7.763,0,0,0-.169-2.074,1.454,1.454,0,0,0-.546-.735,1.554,1.554,0,0,0-.91-.26,2.1,2.1,0,0,0-1.223.375,1.858,1.858,0,0,0-.742.985,8.6,8.6,0,0,0-.2,2.279v4.489h-2.623V92.893h2.436v1.455a4.057,4.057,0,0,1,4.855-1.365,2.664,2.664,0,0,1,1.087.8,2.853,2.853,0,0,1,.512,1.1,8.063,8.063,0,0,1,.145,1.764Z" transform="translate(-133.129 -89.124)" fill="#231f20"/>
        </g>
      </g>
    </g>
  </g>
</svg>
