<svg xmlns="http://www.w3.org/2000/svg" xmlns:xlink="http://www.w3.org/1999/xlink" width="52" height="52" viewBox="0 0 52 52">
  <defs>
    <filter id="Ellipse_14" x="0" y="0" width="52" height="52" filterUnits="userSpaceOnUse">
      <feOffset dy="3" input="SourceAlpha"/>
      <feGaussianBlur stdDeviation="1.5" result="blur"/>
      <feFlood flood-opacity="0.161"/>
      <feComposite operator="in" in2="blur"/>
      <feComposite in="SourceGraphic"/>
    </filter>
    <clipPath id="clip-path">
      <rect id="Rectangle_239" data-name="Rectangle 239" width="20.33" height="16.607" fill="none"/>
    </clipPath>
  </defs>
  <g id="Group_8999" data-name="Group 8999" transform="translate(-1480.5 -519.5)">
    <g transform="matrix(1, 0, 0, 1, 1480.5, 519.5)" filter="url(#Ellipse_14)">
      <circle id="Ellipse_14-2" data-name="Ellipse 14" cx="21.5" cy="21.5" r="21.5" transform="translate(4.5 1.5)" fill="#fff"/>
    </g>
    <g id="Group_8789" data-name="Group 8789" transform="translate(1497.999 535)">
      <g id="Group_8788" data-name="Group 8788" clip-path="url(#clip-path)">
        <path id="Path_23059" data-name="Path 23059" d="M0,14.765a8.626,8.626,0,0,0,4.37-.7A7.692,7.692,0,0,0,6.127,13a5.566,5.566,0,0,1-1.015-.164A4.2,4.2,0,0,1,2.69,11.047a4.1,4.1,0,0,1-.449-.946c.047,0,.082,0,.116.008a4.127,4.127,0,0,0,1.654-.068A.273.273,0,0,0,4.1,10,4.224,4.224,0,0,1,1.248,7.85,4.1,4.1,0,0,1,.76,5.858a4.65,4.65,0,0,0,.918.368,3.66,3.66,0,0,0,.956.135A4.212,4.212,0,0,1,.8,2.749,4.03,4.03,0,0,1,1.351.781a11.969,11.969,0,0,0,6.208,4,11.348,11.348,0,0,0,2.451.377c-.012-.074-.021-.133-.032-.192A4.169,4.169,0,0,1,13.137.118a4.091,4.091,0,0,1,3.946,1.136.164.164,0,0,0,.169.056A8.506,8.506,0,0,0,19.68.394L19.8.329c-.017.054-.026.088-.038.121a4.169,4.169,0,0,1-1.676,2.095A.331.331,0,0,0,18,2.615,8.006,8.006,0,0,0,20.33,2a.2.2,0,0,1-.052.1,8.361,8.361,0,0,1-1.9,1.949.206.206,0,0,0-.094.2A9.607,9.607,0,0,1,18.265,5.5a11.538,11.538,0,0,1-.353,2.124,12.284,12.284,0,0,1-2.823,5.241,11.181,11.181,0,0,1-5.778,3.405,12.957,12.957,0,0,1-1.611.27,12.633,12.633,0,0,1-1.951.048,11.61,11.61,0,0,1-4.211-1,11.885,11.885,0,0,1-1.445-.764L0,14.765m11.286.144h.025l0-.049H11.29l0,.048" transform="translate(0 0)" fill="#231f20"/>
        <path id="Path_23060" data-name="Path 23060" d="M234.673,304.016l0-.048h.017l0,.049h-.025" transform="translate(-223.387 -289.348)" fill="#231f20"/>
      </g>
    </g>
  </g>
</svg>
