<svg xmlns="http://www.w3.org/2000/svg" xmlns:xlink="http://www.w3.org/1999/xlink" width="52" height="52" viewBox="0 0 52 52">
  <defs>
    <filter id="Ellipse_17" x="0" y="0" width="52" height="52" filterUnits="userSpaceOnUse">
      <feOffset dy="3" input="SourceAlpha"/>
      <feGaussianBlur stdDeviation="1.5" result="blur"/>
      <feFlood flood-opacity="0.161"/>
      <feComposite operator="in" in2="blur"/>
      <feComposite in="SourceGraphic"/>
    </filter>
    <clipPath id="clip-path">
      <rect id="Rectangle_238" data-name="Rectangle 238" width="19.654" height="19.746" fill="none"/>
    </clipPath>
  </defs>
  <g id="Group_9002" data-name="Group 9002" transform="translate(-1480.5 -705.5)">
    <g transform="matrix(1, 0, 0, 1, 1480.5, 705.5)" filter="url(#Ellipse_17)">
      <circle id="Ellipse_17-2" data-name="Ellipse 17" cx="21.5" cy="21.5" r="21.5" transform="translate(4.5 1.5)" fill="#fff"/>
    </g>
    <g id="Group_8787" data-name="Group 8787" transform="translate(1497.001 719)">
      <g id="Group_8786" data-name="Group 8786" clip-path="url(#clip-path)">
        <path id="Path_23057" data-name="Path 23057" d="M19.389,7.57A9.8,9.8,0,0,0,9.82,0,9.99,9.99,0,0,0,7.934.193,9.806,9.806,0,0,0,1.251,14.5a.542.542,0,0,1,.043.441Q.664,17.234.039,19.524c-.068.251-.068.251.183.186,1.586-.416,3.17-.828,4.755-1.249a.46.46,0,0,1,.355.04A9.8,9.8,0,0,0,19.389,7.57m-8.2,10.273a7.01,7.01,0,0,1-1.122.11A8.251,8.251,0,0,1,5.647,16.78a.591.591,0,0,0-.5-.075c-.869.241-1.744.456-2.615.687-.183.055-.2.015-.154-.151.231-.827.448-1.65.686-2.468a.676.676,0,0,0-.089-.612A8.015,8.015,0,0,1,3.26,5.047a7.748,7.748,0,0,1,8.288-3.18,7.711,7.711,0,0,1,6.239,6.17,8.125,8.125,0,0,1-6.595,9.806" transform="translate(0)" fill="#231f20" fill-rule="evenodd"/>
        <path id="Path_23058" data-name="Path 23058" d="M117.21,127.643a3.34,3.34,0,0,1-1.018-.156,9.9,9.9,0,0,1-5.3-3.912,5.615,5.615,0,0,1-1.146-2.287,2.746,2.746,0,0,1,.887-2.649,1.6,1.6,0,0,1,1.3-.181.506.506,0,0,1,.23.261c.285.677.565,1.344.844,2.021a.471.471,0,0,1-.029.386,3.074,3.074,0,0,1-.606.807.4.4,0,0,0-.054.562,6.714,6.714,0,0,0,3.333,2.864.4.4,0,0,0,.519-.125c.24-.3.493-.592.72-.9a.4.4,0,0,1,.553-.146c.475.216.951.441,1.426.667.107.045.212.1.317.15.482.241.477.246.435.777a2.082,2.082,0,0,1-1.782,1.806,2.055,2.055,0,0,1-.632.05" transform="translate(-104.824 -113.135)" fill="#231f20" fill-rule="evenodd"/>
      </g>
    </g>
  </g>
</svg>
