<svg xmlns="http://www.w3.org/2000/svg" xmlns:xlink="http://www.w3.org/1999/xlink" width="61.401" height="53.981" viewBox="0 0 61.401 53.981">
  <defs>
    <clipPath id="clip-path">
      <rect id="Rectangle_297" data-name="Rectangle 297" width="61.401" height="53.981" fill="#ec1b2f"/>
    </clipPath>
  </defs>
  <g id="Group_8881" data-name="Group 8881" transform="translate(0)">
    <g id="Group_8880" data-name="Group 8880" transform="translate(0)" clip-path="url(#clip-path)">
      <path id="Path_23092" data-name="Path 23092" d="M16.164,6.218A6.662,6.662,0,0,0,14.7,10.381v.832H11v-.832A10.349,10.349,0,0,1,13.284,3.9Zm4.8-2.526a6.681,6.681,0,0,0-4,1.683L14.525,2.594A10.364,10.364,0,0,1,20.72,0ZM22.524.037a10.373,10.373,0,0,1,5.765,2.556L25.852,5.374a6.689,6.689,0,0,0-3.722-1.659Zm5.587,23.428h3.7V29.64h-3.7Zm0,7.516h3.7v6.174h-3.7Zm-4.7,10.369L15,24.8a1.617,1.617,0,1,1,2.882-1.466L26.44,40.164A15.907,15.907,0,0,1,38.622,41.7L55.975,25.053a39.3,39.3,0,0,0-24.164-9.109v6.18h-3.7V16.012A39.278,39.278,0,0,0,5.427,25.053L22.78,41.7c.208-.12.42-.235.635-.346M43.758,6.218a6.662,6.662,0,0,1,1.461,4.163v.832h3.7v-.832A10.348,10.348,0,0,0,46.637,3.9Zm-4.8-2.526a6.68,6.68,0,0,1,4,1.683L45.4,2.594A10.364,10.364,0,0,0,39.2,0Zm-7.148,8.553A43.146,43.146,0,0,1,59.955,23.632L61.4,24.96l-1.417,1.359L40.13,45.361l-1.105,1.06-1.243-.886A12.046,12.046,0,0,0,30.7,43.277a12.445,12.445,0,0,0-2.545.26l1.928,3.789A3.328,3.328,0,1,1,27.2,48.792l-2.114-4.156a12.23,12.23,0,0,0-1.466.9l-1.243.886-1.1-1.06L1.417,26.319,0,24.96l1.446-1.328A43.152,43.152,0,0,1,28.111,12.306V10.381A6.66,6.66,0,0,0,26.65,6.218l3.311-2.669,3.311,2.669a6.66,6.66,0,0,0-1.461,4.163v1.863ZM37.4.037a10.373,10.373,0,0,0-5.765,2.556L34.07,5.374a6.689,6.689,0,0,1,3.722-1.659Z" fill="#ec1b2f"/>
    </g>
  </g>
</svg>
