<svg id="Group_8883" data-name="Group 8883" xmlns="http://www.w3.org/2000/svg" xmlns:xlink="http://www.w3.org/1999/xlink" width="69.6" height="53.981" viewBox="0 0 69.6 53.981">
  <defs>
    <clipPath id="clip-path">
      <rect id="Rectangle_298" data-name="Rectangle 298" width="69.6" height="53.981" fill="#ec1b2f"/>
    </clipPath>
  </defs>
  <g id="Group_8882" data-name="Group 8882" clip-path="url(#clip-path)">
    <path id="Path_23093" data-name="Path 23093" d="M88.915,3.9A23.087,23.087,0,1,1,65.828,26.99,23.087,23.087,0,0,1,88.915,3.9m0-3.9A26.991,26.991,0,1,1,61.924,26.99,26.991,26.991,0,0,1,88.915,0" transform="translate(-53.844)" fill="#ec1b2f" fill-rule="evenodd"/>
    <path id="Path_23094" data-name="Path 23094" d="M56.378,16.866a30.889,30.889,0,0,1,0,44.217l2.709,2.811a34.79,34.79,0,0,0,0-49.839ZM10.792,13.782a34.8,34.8,0,0,0,0,50.385l2.71-2.812a30.894,30.894,0,0,1,0-44.762Z" transform="translate(0 -11.984)" fill="#ec1b2f" fill-rule="evenodd"/>
    <path id="Path_23095" data-name="Path 23095" d="M243.85,116.856h5.965v-5.564H243.85Zm.223-22.611L245.541,108h2.627l1.469-13.754V85.076h-5.564Z" transform="translate(-212.032 -73.975)" fill="#ec1b2f"/>
  </g>
</svg>
