<svg id="Group_8879" data-name="Group 8879" xmlns="http://www.w3.org/2000/svg" xmlns:xlink="http://www.w3.org/1999/xlink" width="69.6" height="53.981" viewBox="0 0 69.6 53.981">
  <defs>
    <clipPath id="clip-path">
      <rect id="Rectangle_296" data-name="Rectangle 296" width="69.6" height="53.981" fill="#ec1b2f"/>
    </clipPath>
  </defs>
  <g id="Group_8878" data-name="Group 8878" clip-path="url(#clip-path)">
    <path id="Path_23089" data-name="Path 23089" d="M88.911,3.9A23.087,23.087,0,1,1,65.825,26.99,23.087,23.087,0,0,1,88.911,3.9m0-3.9A26.991,26.991,0,1,1,61.92,26.99,26.991,26.991,0,0,1,88.911,0" transform="translate(-53.841)" fill="#ec1b2f" fill-rule="evenodd"/>
    <path id="Path_23090" data-name="Path 23090" d="M56.377,16.866a30.889,30.889,0,0,1,0,44.217l2.709,2.811a34.791,34.791,0,0,0,0-49.839ZM10.792,13.782a34.8,34.8,0,0,0,0,50.385L13.5,61.355a30.895,30.895,0,0,1,0-44.762Z" transform="translate(0 -11.984)" fill="#ec1b2f" fill-rule="evenodd"/>
    <path id="Path_23091" data-name="Path 23091" d="M144.38,160.191c-.04,3.462,2.872,5,5.979,5,3.816,0,5.843-1.928,5.843-4.5,0-3.187-3.148-3.836-4.171-4.091-3.521-.9-4.19-1.043-4.19-2.124,0-1.181,1.141-1.594,2.124-1.594,1.475,0,2.675.434,2.773,2.125h2.99c0-3.245-2.695-4.524-5.626-4.524-2.537,0-5.252,1.377-5.252,4.249,0,2.636,2.1,3.443,4.19,3.993,2.065.551,4.169.806,4.169,2.321,0,1.435-1.652,1.751-2.734,1.751-1.653,0-3.108-.728-3.108-2.6Zm-9.875-6.983H137.4c1.1,0,2.124.276,2.124,1.613,0,1.181-.806,1.672-1.888,1.672H134.5Zm-3.088,11.645h6.806c2.537,0,4.957-1.219,4.957-4.071a3.429,3.429,0,0,0-2.577-3.561,3.081,3.081,0,0,0,1.908-2.931c0-2.616-1.81-3.482-4.485-3.482h-6.609ZM134.5,158.6h3.364c1.317,0,2.223.57,2.223,2.007,0,1.455-1.063,1.848-2.282,1.848h-3.3Zm-11.192-4.328h.039l1.77,5.153h-3.638Zm-6.865,10.582h3.127l1.1-3.127h5.252l1.062,3.127H130.2l-5.253-14.045h-3.167Z" transform="translate(-101.254 -130.84)" fill="#ec1b2f"/>
  </g>
</svg>
