<svg id="Group_8890" data-name="Group 8890" xmlns="http://www.w3.org/2000/svg" xmlns:xlink="http://www.w3.org/1999/xlink" width="61.25" height="44.959" viewBox="0 0 61.25 44.959">
  <defs>
    <clipPath id="clip-path">
      <rect id="Rectangle_301" data-name="Rectangle 301" width="61.25" height="44.959" fill="#ec1b2f"/>
    </clipPath>
  </defs>
  <g id="Group_8889" data-name="Group 8889" clip-path="url(#clip-path)">
    <path id="Path_23102" data-name="Path 23102" d="M55.977,11.262H5.273A1.386,1.386,0,0,0,3.9,12.638V39.686a1.386,1.386,0,0,0,1.376,1.376h50.7a1.386,1.386,0,0,0,1.376-1.376V12.638a1.386,1.386,0,0,0-1.376-1.376m-50.7-3.9H8.034V3.383A3.388,3.388,0,0,1,11.417,0H16.8a3.389,3.389,0,0,1,3.383,3.383V7.365H41.062V3.347A3.351,3.351,0,0,1,44.409,0h5.46a3.353,3.353,0,0,1,3.347,3.347V7.365h2.761a5.282,5.282,0,0,1,5.273,5.273V39.686a5.282,5.282,0,0,1-5.273,5.273H5.273A5.282,5.282,0,0,1,0,39.686V12.638A5.282,5.282,0,0,1,5.273,7.365" fill="#ec1b2f"/>
    <path id="Path_23103" data-name="Path 23103" d="M106.363,187.892h4.157v-4.157h3.9v4.157h4.157v3.9h-4.157v4.157h-3.9v-4.157h-4.157Zm-33.028,0H85.547v3.9H73.335Z" transform="translate(-65.33 -163.679)" fill="#ec1b2f"/>
  </g>
</svg>
