<svg xmlns="http://www.w3.org/2000/svg" xmlns:xlink="http://www.w3.org/1999/xlink" width="370.553" height="55.228" viewBox="0 0 370.553 55.228">
  <defs>
    <clipPath id="clip-path">
      <rect id="Rectangle_26" data-name="Rectangle 26" width="370.553" height="55.228" fill="#ec1b2f"/>
    </clipPath>
  </defs>
  <g id="Group_570" data-name="Group 570" transform="translate(0 0)">
    <g id="Group_570-2" data-name="Group 570" transform="translate(0 0)" clip-path="url(#clip-path)">
      <path id="Path_9" data-name="Path 9" d="M141.7,54.729c1.868-.2,2.574-1.322,2.574-3.225V3.389c0-1.81-.706-3.029-2.574-3.224a118.961,118.961,0,0,0-12.544,0c-1.122.117-2.574.731-2.574,3.224V51.5c0,1.9.706,3.029,2.574,3.225,2.1.221,10.676.194,12.544,0" transform="translate(-21.995 0)" fill="#ec1b2f" fill-rule="evenodd"/>
      <path id="Path_10" data-name="Path 10" d="M316.058,54.729c1.868-.2,2.574-1.322,2.574-3.225V3.389c0-1.81-.706-3.029-2.574-3.224a118.961,118.961,0,0,0-12.544,0c-1.121.117-2.574.731-2.574,3.224V51.5c0,1.9.706,3.029,2.574,3.225,2.1.221,10.676.194,12.544,0" transform="translate(-52.291 0)" fill="#ec1b2f" fill-rule="evenodd"/>
      <path id="Path_11" data-name="Path 11" d="M252.616,2.35c1.006-1.517,1.4-1.918,3.134-1.919.421,0,4.76.017,5.367.06,2.655.188,2.775,1.327,1.609,3.054L231.655,49.06s-1.006,1.473-2.066,2.865a7.563,7.563,0,0,1-6.041,3.241c-1.434.067-9.911.11-11.881.11-1.8,0-3.522-.031-4.643-.1-3.621-.221-5.332-1.569-7.411-4.143a24.675,24.675,0,0,1-1.486-1.985C192.093,40.2,167.545,4.071,167.545,4.071c-1.072-1.694-.433-3.6,1.89-3.731,1.543-.08,11.516-.053,13.406,0,4.054.112,4.076.174,5.869,2.655.216.324,20.318,30.146,26.53,39.138.472.675.875,1.241,1.184,1.662a8.717,8.717,0,0,0,1.279,1.334,3.457,3.457,0,0,0,2.642.858,4.689,4.689,0,0,0,2.841-.765,11.615,11.615,0,0,0,2.463-2.877c6.027-8.809,26.761-39.69,26.969-39.994" transform="translate(-29.025 -0.05)" fill="#ec1b2f" fill-rule="evenodd"/>
      <path id="Path_12" data-name="Path 12" d="M81.405,7.591c1.5,0,2.672-.2,2.774-2.189.04-.818.05-1.976,0-2.789C84.068.787,83.207.367,81.33.367H39.294c-2.262,0-6.944,0-11.608.321-3.6.247-11.176,1.232-15.715,4.1A24.841,24.841,0,0,0,0,26.6c-.045,8.366,2.612,17.058,9.977,22.517,5.5,4.078,15.937,5.832,24.725,5.832,9.047,0,36.261,0,47.1-.006,0,0,1.206,0,3.65,0,1.876,0,2.737-.421,2.85-2.247.049-.813.04-2.683,0-3.5-.1-1.991-1.27-2.189-2.774-2.189h-.073L81.8,47v-.013l-33.118,0c-2.353,0-15.505-.347-19.017-1.882C22.747,42.082,18.916,36.536,18.909,26.6c0-7.33,2.377-12.965,8.543-16.193C31.172,8.459,40.6,7.591,49.775,7.591Z" transform="translate(0 -0.063)" fill="#ec1b2f" fill-rule="evenodd"/>
      <path id="Path_13" data-name="Path 13" d="M422.977,7.591c1.5,0,2.672-.2,2.774-2.189.04-.818.05-1.976,0-2.789C425.639.787,424.778.367,422.9.367H380.865c-2.262,0-6.943,0-11.608.321-3.6.247-11.175,1.232-15.714,4.1A24.841,24.841,0,0,0,341.572,26.6c-.045,8.366,2.612,17.058,9.977,22.517,5.5,4.078,15.937,5.832,24.725,5.832,9.047,0,36.261,0,47.1-.006,0,0,1.206,0,3.65,0,1.876,0,2.737-.421,2.85-2.247.049-.813.04-2.683,0-3.5-.1-1.991-1.27-2.189-2.774-2.189h-.073L423.371,47v-.013l-33.118,0c-2.353,0-15.505-.347-19.017-1.882-6.917-3.024-10.749-8.571-10.756-18.507,0-7.33,2.377-12.965,8.543-16.193,3.721-1.947,13.148-2.816,22.324-2.816Z" transform="translate(-59.351 -0.063)" fill="#ec1b2f" fill-rule="evenodd"/>
    </g>
  </g>
</svg>
