<svg xmlns="http://www.w3.org/2000/svg" xmlns:xlink="http://www.w3.org/1999/xlink" width="236.981" height="35.32" viewBox="0 0 236.981 35.32">
  <defs>
    <clipPath id="clip-path">
      <rect id="Rectangle_26" data-name="Rectangle 26" width="236.981" height="35.32" fill="#fff"/>
    </clipPath>
  </defs>
  <g id="Group_749" data-name="Group 749" transform="translate(0 0)">
    <g id="Group_570" data-name="Group 570" transform="translate(0 0)" clip-path="url(#clip-path)">
      <path id="Path_9" data-name="Path 9" d="M136.25,35c1.195-.125,1.646-.845,1.646-2.062V2.167c0-1.158-.451-1.937-1.646-2.062a76.08,76.08,0,0,0-8.022,0c-.718.075-1.646.468-1.646,2.062V32.938c0,1.217.451,1.937,1.646,2.062,1.342.141,6.828.124,8.022,0" transform="translate(-59.695 0)" fill="#fff" fill-rule="evenodd"/>
      <path id="Path_10" data-name="Path 10" d="M310.608,35c1.195-.125,1.646-.845,1.646-2.062V2.167c0-1.158-.451-1.937-1.646-2.062a76.08,76.08,0,0,0-8.022,0c-.717.075-1.646.468-1.646,2.062V32.938c0,1.217.451,1.937,1.646,2.062,1.342.141,6.828.124,8.022,0" transform="translate(-141.92 0)" fill="#fff" fill-rule="evenodd"/>
      <path id="Path_11" data-name="Path 11" d="M221.769,1.607c.643-.97.893-1.226,2-1.227.269,0,3.044.011,3.433.039,1.7.12,1.774.849,1.029,1.953L208.364,31.48s-.644.942-1.322,1.833a4.837,4.837,0,0,1-3.863,2.073c-.917.043-6.338.07-7.6.07-1.15,0-2.253-.02-2.969-.067a5.81,5.81,0,0,1-4.739-2.649,15.783,15.783,0,0,1-.951-1.269c-3.859-5.658-19.559-28.763-19.559-28.763A1.446,1.446,0,0,1,168.572.321c.987-.051,7.365-.034,8.573,0,2.593.071,2.607.111,3.753,1.7.138.207,12.994,19.28,16.967,25.03.3.432.56.794.757,1.063a5.576,5.576,0,0,0,.818.853,2.211,2.211,0,0,0,1.689.548,3,3,0,0,0,1.817-.489,7.428,7.428,0,0,0,1.575-1.84c3.854-5.634,17.115-25.383,17.247-25.578" transform="translate(-78.775 -0.136)" fill="#fff" fill-rule="evenodd"/>
      <path id="Path_12" data-name="Path 12" d="M52.062,4.987c.961,0,1.709-.127,1.774-1.4.026-.523.032-1.263,0-1.783C53.764.635,53.214.367,52.014.367H25.13c-1.447,0-4.441,0-7.424.205-2.3.158-7.147.788-10.05,2.623A15.887,15.887,0,0,0,0,17.143c-.029,5.35,1.67,10.909,6.381,14.4,3.519,2.608,10.192,3.73,15.813,3.73,5.786,0,23.19,0,30.12,0,0,0,.771,0,2.335,0,1.2,0,1.751-.269,1.822-1.437.031-.52.025-1.716,0-2.239-.064-1.273-.812-1.4-1.774-1.4h-.047l-2.336,0v-.008l-21.18,0c-1.5,0-9.916-.222-12.162-1.2C14.548,27.045,12.1,23.5,12.093,17.143c0-4.688,1.52-8.291,5.463-10.356,2.379-1.245,8.409-1.8,14.277-1.8Z" transform="translate(0 -0.173)" fill="#fff" fill-rule="evenodd"/>
      <path id="Path_13" data-name="Path 13" d="M393.633,4.987c.961,0,1.709-.127,1.774-1.4.026-.523.032-1.263,0-1.783-.072-1.168-.622-1.437-1.822-1.437H366.7c-1.447,0-4.44,0-7.424.205-2.3.158-7.147.788-10.05,2.623a15.886,15.886,0,0,0-7.656,13.949c-.029,5.35,1.67,10.909,6.381,14.4,3.519,2.608,10.192,3.73,15.813,3.73,5.786,0,23.19,0,30.12,0,0,0,.771,0,2.335,0,1.2,0,1.751-.269,1.823-1.437.031-.52.025-1.716,0-2.239-.064-1.273-.812-1.4-1.774-1.4h-.046l-2.336,0v-.008l-21.18,0c-1.5,0-9.916-.222-12.162-1.2-4.424-1.934-6.874-5.481-6.879-11.836,0-4.688,1.52-8.291,5.463-10.356,2.379-1.245,8.409-1.8,14.277-1.8Z" transform="translate(-161.082 -0.173)" fill="#fff" fill-rule="evenodd"/>
    </g>
  </g>
</svg>
