<svg xmlns="http://www.w3.org/2000/svg" width="867.495" height="129.291" viewBox="0 0 867.495 129.291">
  <g id="Group_8661" data-name="Group 8661" transform="translate(-538 -137)">
    <path id="Path_23046" data-name="Path 23046" d="M161.974,128.124c4.373-.458,6.025-3.095,6.025-7.55V7.935C168,3.7,166.347.844,161.974.387a278.5,278.5,0,0,0-29.367,0c-2.627.273-6.025,1.712-6.025,7.548v112.64c0,4.455,1.652,7.091,6.025,7.55,4.911.516,24.993.455,29.367,0" transform="translate(656.265 137.001)" fill="#e2e2e2" fill-rule="evenodd"/>
    <path id="Path_23047" data-name="Path 23047" d="M336.332,128.124c4.373-.458,6.025-3.095,6.025-7.55V7.935c0-4.238-1.652-7.091-6.025-7.548a278.5,278.5,0,0,0-29.367,0C304.34.66,300.94,2.1,300.94,7.935v112.64c0,4.455,1.652,7.091,6.025,7.55,4.911.516,24.993.455,29.367,0" transform="translate(819.169 137.001)" fill="#e2e2e2" fill-rule="evenodd"/>
    <path id="Path_23048" data-name="Path 23048" d="M367.381,5.115c2.354-3.551,3.267-4.49,7.337-4.491.986,0,11.144.039,12.565.141,6.215.441,6.5,3.106,3.768,7.149L318.31,114.467s-2.356,3.449-4.838,6.708a17.706,17.706,0,0,1-14.142,7.588c-3.358.157-23.2.257-27.815.257-4.209,0-8.246-.074-10.869-.244-8.476-.516-12.482-3.673-17.349-9.7a57.759,57.759,0,0,1-3.48-4.646c-14.128-20.711-71.6-105.29-71.6-105.29C165.713,5.177,167.208.7,172.647.407c3.613-.188,26.96-.124,31.384,0,9.492.261,9.542.408,13.739,6.215.507.758,47.566,70.575,62.108,91.626,1.1,1.58,2.048,2.905,2.772,3.892a20.409,20.409,0,0,0,2.994,3.124c1.151.961,2.457,2.008,6.184,2.008a10.978,10.978,0,0,0,6.65-1.791c1.691-1.248,3.36-3.211,5.766-6.735,14.109-20.624,62.65-92.918,63.135-93.63" transform="translate(694.066 137.271)" fill="#e2e2e2" fill-rule="evenodd"/>
    <path id="Path_23049" data-name="Path 23049" d="M190.577,17.279c3.518,0,6.256-.464,6.493-5.124.095-1.915.118-4.625,0-6.528C196.809,1.35,194.794.367,190.4.367H91.989c-5.3,0-16.256,0-27.175.751C56.387,1.7,38.651,4,28.024,10.717,8.106,23.308-.087,42.405,0,61.779-.1,81.364,6.116,101.713,23.358,114.493c12.882,9.548,37.309,13.652,57.884,13.652,21.179,0,84.891,0,110.257-.014,0,0,2.824,0,8.546,0,4.393,0,6.408-.985,6.671-5.259.114-1.9.093-6.281,0-8.2-.236-4.662-2.973-5.124-6.493-5.124h-.17l-8.55-.014v-.031l-77.533.006c-5.509,0-36.3-.812-44.52-4.406-16.194-7.08-25.163-20.065-25.181-43.326,0-17.161,5.565-30.351,20-37.908,8.71-4.559,30.781-6.592,52.263-6.592Z" transform="translate(538 137.344)" fill="#e2e2e2" fill-rule="evenodd"/>
    <path id="Path_23050" data-name="Path 23050" d="M532.148,17.279c3.518,0,6.255-.464,6.493-5.124.095-1.915.118-4.625,0-6.528C538.38,1.35,536.365.367,531.972.367H433.56c-5.3,0-16.254,0-27.175.751C397.958,1.7,380.224,4,369.6,10.717c-19.919,12.59-28.113,31.688-28.024,51.062-.106,19.585,6.114,39.934,23.357,52.714,12.883,9.548,37.309,13.652,57.884,13.652,21.179,0,84.891,0,110.257-.014,0,0,2.822,0,8.546,0,4.393,0,6.408-.985,6.672-5.259.114-1.9.093-6.281,0-8.2-.236-4.662-2.973-5.124-6.493-5.124h-.17l-8.55-.014v-.031l-77.533.006c-5.509,0-36.3-.812-44.52-4.406-16.194-7.08-25.163-20.065-25.181-43.326,0-17.161,5.565-30.351,20-37.908,8.71-4.559,30.781-6.592,52.263-6.592Z" transform="translate(857.13 137.344)" fill="#e2e2e2" fill-rule="evenodd"/>
  </g>
</svg>
