<svg xmlns="http://www.w3.org/2000/svg" width="246.383" height="34.4" viewBox="0 0 246.383 34.4">
  <g id="Group_35" data-name="Group 35" transform="translate(-542.218 -421.557)">
    <path id="Path_16" data-name="Path 16" d="M586.106,455.864H596.8c2.751,0,2.714-.033,3.407-1.5.619-1.306,2.124-5.243,2.124-5.243l-26.565,0a91.365,91.365,0,0,1-10.343-.476c-2.991-.315-4.905-1.318-5.891-3.08-1.38-2.467.048-6.969,1.127-9.3,2.541-5.484,5.765-6.831,12.738-7.212,4.12-.226,7.132-.256,10.763-.256l18.672-.006a5.79,5.79,0,0,0,5.567-3.573c.619-1.31,1.27-2.891,1.27-2.891l-31.748-.017c-4.259,0-9.565.07-13.495.351-12.5.9-17.262,5.319-20.33,12.535-2.409,5.67-2.4,10.806-.516,14.309,1.6,2.964,5.789,5.316,10.951,5.854a110.66,110.66,0,0,0,13.606.571Z" transform="translate(0 -0.448)" fill="#fff"/>
    <g id="Group_33" data-name="Group 33" transform="translate(609.488 421.557)">
      <path id="Path_17" data-name="Path 17" d="M1033.671,421.843s-20.913,21.461-23.331,23.459c-2.887,2.385-3.345,2.489-6.038,2.577l-2.966.006L993.3,421.843h-17l9.884,33.622H1003c9.745,0,10.5-.056,16.91-5.77,11.815-10.53,29.291-28.138,29.291-28.138Z" transform="translate(-870.085 -421.557)" fill="#fff"/>
      <path id="Path_18" data-name="Path 18" d="M765.67,442.53c8.067-.517,11.934-2.437,14.268-7.083A12.432,12.432,0,0,0,781,431.981a7.044,7.044,0,0,0-1.363-5.645c-1.671-2.121-4.665-3.444-8.429-3.728-3.719-.276-7.009-.384-11.731-.384h-36.8L710.54,455.8h16.512l9.919-27.4,19.54-.023c3.5,0,5.923.05,7.012.146a3.529,3.529,0,0,1,2.738,1.122,2.454,2.454,0,0,1,.151,2.126,4.672,4.672,0,0,1-.727,1.545c-1.167,1.828-3.187,2.749-6.353,2.9-.982.045-3.25.118-5.16.118l-15.5,0a4.2,4.2,0,0,0-1.069.1,4.5,4.5,0,0,0,.838.831c2.234,1.818,19.727,15.387,20.888,16.16.394.261.744.5,1.064.715,3.182,2.16,3.484,2.222,10.773,2.222l11.159,0L763.334,442.68Z" transform="translate(-710.54 -421.957)" fill="#fff"/>
    </g>
    <g id="Group_34" data-name="Group 34" transform="translate(685.03 435.94)">
      <path id="Path_19" data-name="Path 19" d="M899.558,464.947H923.33l2.671-7.4H902.132Z" transform="translate(-899.558 -457.546)" fill="#fff"/>
    </g>
  </g>
</svg>
