<svg xmlns="http://www.w3.org/2000/svg" width="185.908" height="36.752" viewBox="0 0 185.908 36.752">
  <g id="Group_4" data-name="Group 4" transform="translate(0.499 0.499)">
    <path id="Path_6" data-name="Path 6" d="M526.081,191.624a28.634,28.634,0,0,0,3.353-2.068,3.254,3.254,0,0,0,1.168-1.995,14.88,14.88,0,0,0,.049-3c-.024-.942-.035-2.1-1.008-2.585a8.2,8.2,0,0,0-3.531-.4c-1.457-.008-2.915-.005-4.372-.005H494.994c-1.4,0-2.8-.013-4.2.006a2.489,2.489,0,0,0-1.213.22,1.448,1.448,0,0,0-.537,1.31,7.444,7.444,0,0,0,.093,1.7c.173.563.572.739,1.167.8.413.041,1.554.029,3.346.029H511.2c1.452,0,2.906,0,4.359,0a5.807,5.807,0,0,1,1.472.138.807.807,0,0,1,.512,1.285c-.359.5-.658.8-2.78,2.049-1.254.741-2.52,1.463-3.78,2.193-5.107,2.96-10.059,5.82-15.322,8.879-1.228.714-2.288,1.352-3.507,2.083a13.914,13.914,0,0,0-2.668,1.953,4.139,4.139,0,0,0-.924,3.182c.007.84.039,1.5.066,1.992a3.863,3.863,0,0,0,.39,1.7c.591,1.051,1.85,1.092,2.919,1.106,1.443.017,2.886.015,4.328.015h30.972c.674,0,1.352.015,2.026-.016.556-.026,1.047-.146,1.218-.847a9.289,9.289,0,0,0,.07-1.85,2.227,2.227,0,0,0-.342-1.559c-.355-.359-.838-.334-2.383-.335q-2.915,0-5.832,0-6.557,0-13.114,0c-1.1,0-2.2,0-3.3-.013a4.838,4.838,0,0,1-2.551-.4c-.778-.675-.4-1.586.4-2.237a21.991,21.991,0,0,1,2.11-1.311q5.039-2.953,10.082-5.9l10.454-6.117" transform="translate(-393.744 -181.466)" fill="#fff" stroke="#fff" stroke-miterlimit="10" stroke-width="1"/>
    <path id="Path_7" data-name="Path 7" d="M698.59,191.624a28.666,28.666,0,0,0,3.353-2.068,3.254,3.254,0,0,0,1.168-1.995,14.9,14.9,0,0,0,.049-3c-.025-.942-.035-2.1-1.008-2.585a8.2,8.2,0,0,0-3.531-.4c-1.458-.008-2.915-.005-4.372-.005H667.5c-1.4,0-2.8-.013-4.2.006a2.489,2.489,0,0,0-1.214.22,1.448,1.448,0,0,0-.537,1.31,7.5,7.5,0,0,0,.092,1.7c.173.563.573.739,1.167.8.413.041,1.554.029,3.346.029h17.547c1.453,0,2.906,0,4.359,0a5.809,5.809,0,0,1,1.472.138.807.807,0,0,1,.512,1.285c-.36.5-.658.8-2.78,2.049-1.254.741-2.519,1.463-3.779,2.193-5.107,2.96-10.059,5.82-15.322,8.879-1.228.714-2.288,1.352-3.507,2.083a13.915,13.915,0,0,0-2.668,1.953,4.14,4.14,0,0,0-.923,3.182c.007.84.039,1.5.066,1.992a3.864,3.864,0,0,0,.39,1.7c.591,1.051,1.849,1.092,2.919,1.106,1.443.017,2.886.015,4.328.015h30.972c.674,0,1.353.015,2.026-.016.557-.026,1.047-.146,1.219-.847a9.3,9.3,0,0,0,.071-1.85,2.229,2.229,0,0,0-.342-1.559c-.355-.359-.838-.334-2.383-.335q-2.916,0-5.832,0-6.556,0-13.114,0c-1.1,0-2.2,0-3.3-.013a4.838,4.838,0,0,1-2.551-.4c-.777-.675-.4-1.586.4-2.237a21.965,21.965,0,0,1,2.11-1.311q5.04-2.953,10.082-5.9l10.454-6.117" transform="translate(-518.295 -181.466)" fill="#fff" stroke="#fff" stroke-miterlimit="10" stroke-width="1"/>
    <path id="Path_8" data-name="Path 8" d="M177.433,183.7c-.018-.641.078-1.819-1.257-1.994a22.329,22.329,0,0,0-2.72-.114c-1.051,0-1.95,0-3,.018s-2.311,0-2.61.869a12.114,12.114,0,0,0-.146,2.864V194.5a66.88,66.88,0,0,1-.566,11.718,7.079,7.079,0,0,1-2.741,4.732,11.908,11.908,0,0,1-5.3,1.529c-1.95.153-3.9.148-5.855.148-1.058,0-2.116,0-3.174,0-.681,0-1.994-.125-2.394.773a3.282,3.282,0,0,0-.174,1.32,6.075,6.075,0,0,0,.085,1.427c.254,1.031,1.134,1.014,2.2,1.061.884.039,2.824.032,5.8.019,4.445-.019,8.449-.038,11.74-.861,3.76-.941,7.136-2.993,8.683-6.76,1.036-2.524,1.412-4.574,1.432-11.263.013-4.257.006-8.515.006-12.772Q177.436,184.641,177.433,183.7Z" transform="translate(-147.489 -181.489)" fill="#fff" stroke="#fff" stroke-miterlimit="10" stroke-width="1"/>
    <path id="Path_9" data-name="Path 9" d="M301.325,203.677c-2.6.005-4.584-.013-5.868.1a4.768,4.768,0,0,0-2.818.886,10.324,10.324,0,0,0-1.737,2.153c-.575.831-1.129,1.677-1.694,2.514-.759,1.124-1.271,1.927-1.525,2.187-.6.612-.877.6-2.788.628-1.618.024-2.257.032-2.693-.334-.757-.635.055-1.795.42-2.361.574-.889,1.158-1.77,1.745-2.65q1.754-2.63,3.527-5.248,3.544-5.26,7.092-10.516l2.841-4.211c.474-.7.939-1.411,1.426-2.1A16.674,16.674,0,0,1,301,182.5a4.142,4.142,0,0,1,2.671-1.161,25.676,25.676,0,0,1,2.626-.116c3.165-.023,5.182-.008,5.991.061a5.236,5.236,0,0,1,2.752.785,6.485,6.485,0,0,1,1.823,1.892c1.016,1.455,1.991,2.939,2.977,4.415l7.485,11.213c2.063,3.091,3.844,5.732,6.12,9.172.72,1.088,1.4,1.937.884,2.712-.359.535-.852.63-2.283.653-1.706.028-3.417.046-5.123-.02a3.7,3.7,0,0,1-1.388-.232,3.037,3.037,0,0,1-1.056-.9c-.262-.306-.843-1.184-1.727-2.505q-.788-1.178-1.578-2.354a5.892,5.892,0,0,0-1.836-1.975,6.282,6.282,0,0,0-2.663-.442c-5.214-.026-10.226-.028-15.347-.024m-3.039-7.744c-.265.4-.534.807-.79,1.217a3.189,3.189,0,0,0-.6,1.282c-.066,1.094,1.236.987,2.531,1,4.688.033,8.611.034,13.063.024a11.33,11.33,0,0,0,2.684-.146c1.043-.359.266-1.548-.171-2.272-1.85-3.065-3.808-6.047-5.867-9.008a4.262,4.262,0,0,0-2.029-1.9,2.462,2.462,0,0,0-2.678.815,22.656,22.656,0,0,0-1.615,2.233q-2.032,3-4.031,6.016C298.615,195.44,298.449,195.693,298.286,195.933Z" transform="translate(-244.527 -181.214)" fill="#fff" stroke="#fff" stroke-miterlimit="10" stroke-width="1"/>
  </g>
</svg>
